<svg width="25" height="23" viewBox="0 0 25 23" fill="none" xmlns="http://www.w3.org/2000/svg">
<path d="M9.18667 14.8221C4.23191 14.8221 0 15.5875 0 18.6467C0 21.7082 4.205 22.5 9.18667 22.5C14.1414 22.5 18.3733 21.7346 18.3733 18.6754C18.3733 15.6139 14.1683 14.8221 9.18667 14.8221Z" fill="#4A4A4A"/>
<path opacity="0.4" d="M9.18665 11.906C12.5612 11.906 15.2654 9.25772 15.2654 5.95301C15.2654 2.64831 12.5612 0 9.18665 0C5.81336 0 3.10787 2.64831 3.10787 5.95301C3.10787 9.25772 5.81336 11.906 9.18665 11.906Z" fill="#4A4A4A"/>
<path opacity="0.4" d="M17.7168 6.06097C17.7168 7.74387 17.2006 9.31417 16.2956 10.6186C16.2014 10.7527 16.2845 10.9336 16.4484 10.9623C16.6759 10.9995 16.9096 11.0222 17.1481 11.027C19.5209 11.0881 21.6503 9.59206 22.2386 7.33902C23.1106 3.99598 20.5519 0.994324 17.2924 0.994324C16.9389 0.994324 16.6001 1.03026 16.2699 1.09614C16.2246 1.10572 16.1757 1.12728 16.1512 1.16561C16.1194 1.21472 16.1427 1.2782 16.1745 1.32012C17.1542 2.66524 17.7168 4.30262 17.7168 6.06097Z" fill="#4A4A4A"/>
<path d="M24.7239 15.2117C24.2897 14.3049 23.2415 13.6833 21.6466 13.3778C20.8944 13.1982 18.8567 12.943 16.9621 12.979C16.934 12.9826 16.9181 13.0017 16.9156 13.0137C16.912 13.0329 16.9205 13.0616 16.9572 13.082C17.833 13.506 21.2173 15.3506 20.7916 19.241C20.7733 19.4111 20.9115 19.5548 21.0839 19.5309C21.9169 19.4147 24.0597 18.9631 24.7239 17.5593C25.092 16.8167 25.092 15.9543 24.7239 15.2117Z" fill="#4A4A4A"/>
</svg>
