<svg width="25" height="25" viewBox="0 0 25 25" fill="none" xmlns="http://www.w3.org/2000/svg">
<path opacity="0.4" d="M17.5944 0H21.8268C23.5797 0 25 1.43231 25 3.19995V7.46816C25 9.2358 23.5797 10.6681 21.8268 10.6681H17.5944C15.8416 10.6681 14.4212 9.2358 14.4212 7.46816V3.19995C14.4212 1.43231 15.8416 0 17.5944 0Z" fill="#7D1935"/>
<path fill-rule="evenodd" clip-rule="evenodd" d="M3.17316 0H7.40561C9.15845 0 10.5788 1.43231 10.5788 3.19995V7.46816C10.5788 9.2358 9.15845 10.6681 7.40561 10.6681H3.17316C1.42032 10.6681 0 9.2358 0 7.46816V3.19995C0 1.43231 1.42032 0 3.17316 0ZM3.17316 14.3319H7.40561C9.15845 14.3319 10.5788 15.7642 10.5788 17.5318V21.8C10.5788 23.5665 9.15845 25 7.40561 25H3.17316C1.42032 25 0 23.5665 0 21.8V17.5318C0 15.7642 1.42032 14.3319 3.17316 14.3319ZM21.8268 14.3319H17.5944C15.8416 14.3319 14.4212 15.7642 14.4212 17.5318V21.8C14.4212 23.5665 15.8416 25 17.5944 25H21.8268C23.5797 25 25 23.5665 25 21.8V17.5318C25 15.7642 23.5797 14.3319 21.8268 14.3319Z" fill="#7D1935"/>
</svg>
