<svg width="20" height="20" viewBox="0 0 20 20" fill="none" xmlns="http://www.w3.org/2000/svg">
<path opacity="0.4" d="M11.3051 3.88243V4.06547C10.8144 4.05584 10.3237 4.05584 9.83307 4.05584V3.89206C9.83307 3.22733 9.2737 2.68784 8.60638 2.68784H7.63484C6.52591 2.68784 5.62306 1.80152 5.62306 0.722536C5.62306 0.32755 5.95672 0 6.35908 0C6.77125 0 7.09509 0.32755 7.09509 0.722536C7.09509 1.01155 7.34043 1.24276 7.63484 1.24276H8.60638C10.0882 1.2524 11.2953 2.43736 11.3051 3.88243Z" fill="#E63E6D"/>
<path fill-rule="evenodd" clip-rule="evenodd" d="M13.164 4.08267C13.4791 4.08699 13.7949 4.09132 14.1119 4.09457C17.5172 4.09457 20 6.52229 20 9.87486V14.1812C20 17.5337 17.5172 19.9615 14.1119 19.9615C12.7478 19.9904 11.3837 20 10.0098 20C8.63592 20 7.25221 19.9904 5.88813 19.9615C2.48283 19.9615 0 17.5337 0 14.1812V9.87486C0 6.52229 2.48283 4.09457 5.89794 4.09457C7.18351 4.0753 8.49853 4.05603 9.83317 4.05603C10.3238 4.05603 10.8145 4.05603 11.3052 4.06566C11.9238 4.06566 12.5425 4.07415 13.164 4.08267ZM8.85182 12.7457H7.82139V13.7669C7.82139 14.1619 7.48773 14.4895 7.08538 14.4895C6.67321 14.4895 6.34936 14.1619 6.34936 13.7669V12.7457H5.30913C4.90677 12.7457 4.57311 12.4278 4.57311 12.0232C4.57311 11.6282 4.90677 11.3007 5.30913 11.3007H6.34936V10.2891C6.34936 9.89412 6.67321 9.56657 7.08538 9.56657C7.48773 9.56657 7.82139 9.89412 7.82139 10.2891V11.3007H8.85182C9.25417 11.3007 9.58783 11.6282 9.58783 12.0232C9.58783 12.4278 9.25417 12.7457 8.85182 12.7457ZM13.0226 11.1176H13.1207C13.5231 11.1176 13.8567 10.7997 13.8567 10.3951C13.8567 10.0001 13.5231 9.67255 13.1207 9.67255H13.0226C12.6104 9.67255 12.2866 10.0001 12.2866 10.3951C12.2866 10.7997 12.6104 11.1176 13.0226 11.1176ZM14.7007 14.4317H14.7988C15.2012 14.4317 15.5348 14.1137 15.5348 13.7091C15.5348 13.3141 15.2012 12.9866 14.7988 12.9866H14.7007C14.2885 12.9866 13.9647 13.3141 13.9647 13.7091C13.9647 14.1137 14.2885 14.4317 14.7007 14.4317Z" fill="#E63E6D"/>
</svg>
