<svg width="25" height="24" viewBox="0 0 25 24" fill="none" xmlns="http://www.w3.org/2000/svg">
<path opacity="0.4" fill-rule="evenodd" clip-rule="evenodd" d="M5.91061 20.5885C5.91061 19.7485 6.59061 19.0685 7.43061 19.0685C8.26061 19.0685 8.94061 19.7485 8.94061 20.5885C8.94061 21.4185 8.26061 22.0985 7.43061 22.0985C6.59061 22.0985 5.91061 21.4185 5.91061 20.5885ZM17.1606 20.5885C17.1606 19.7485 17.8406 19.0685 18.6806 19.0685C19.5106 19.0685 20.1906 19.7485 20.1906 20.5885C20.1906 21.4185 19.5106 22.0985 18.6806 22.0985C17.8406 22.0985 17.1606 21.4185 17.1606 20.5885Z" fill="#E63E6D"/>
<path fill-rule="evenodd" clip-rule="evenodd" d="M20.1908 6.34899C20.8008 6.34899 21.2008 6.55899 21.6008 7.01899C22.0008 7.47899 22.0708 8.13899 21.9808 8.73799L21.0308 15.298C20.8508 16.559 19.7708 17.488 18.5008 17.488H7.5908C6.2608 17.488 5.1608 16.468 5.0508 15.149L4.1308 4.24799L2.6208 3.98799C2.2208 3.91799 1.9408 3.52799 2.0108 3.12799C2.0808 2.71799 2.4708 2.44799 2.8808 2.50799L5.2658 2.86799C5.6058 2.92899 5.8558 3.20799 5.8858 3.54799L6.0758 5.78799C6.1058 6.10899 6.3658 6.34899 6.6858 6.34899H20.1908ZM14.1308 11.548H16.9008C17.3208 11.548 17.6508 11.208 17.6508 10.798C17.6508 10.378 17.3208 10.048 16.9008 10.048H14.1308C13.7108 10.048 13.3808 10.378 13.3808 10.798C13.3808 11.208 13.7108 11.548 14.1308 11.548Z" fill="#E63E6D"/>
<circle cx="20.5" cy="6.5" r="3.5" fill="#F05941" stroke="#040D12" stroke-width="2"/>
</svg>
