<svg width="25" height="27" viewBox="0 0 25 27" fill="none" xmlns="http://www.w3.org/2000/svg">
<path d="M8.74175 24.7133V20.678C8.74173 19.6554 9.57325 18.8246 10.6032 18.8182H14.385C15.4196 18.8182 16.2582 19.6508 16.2582 20.678V24.7016C16.2582 25.5885 16.979 26.3093 17.8723 26.3157H20.4524C21.6574 26.3189 22.8141 25.8458 23.6673 25.0009C24.5205 24.1561 25 23.0089 25 21.8125V10.3498C25 9.3834 24.5685 8.46673 23.8219 7.84671L15.0566 0.887195C13.5244 -0.330102 11.336 -0.290779 9.8492 0.980769L1.27238 7.84671C0.490448 8.44845 0.0230951 9.36785 0 10.3498V21.8008C0 24.2944 2.03603 26.3157 4.5476 26.3157H7.0688C7.49891 26.3189 7.91248 26.1514 8.21773 25.8506C8.52297 25.5497 8.69464 25.1403 8.69463 24.7133H8.74175Z" fill="#4A4A4A"/>
</svg>
