<svg width="14" height="17" viewBox="0 0 14 17" fill="none" xmlns="http://www.w3.org/2000/svg">
<path fill-rule="evenodd" clip-rule="evenodd" d="M3.51548 5.52905H10.4845C12.4259 5.52905 14 7.06839 14 8.967V13.0326C14 14.9312 12.4259 16.4706 10.4845 16.4706H3.51548C1.57406 16.4706 0 14.9312 0 13.0326V8.967C0 7.06839 1.57406 5.52905 3.51548 5.52905ZM6.99583 12.6243C7.40588 12.6243 7.73224 12.3051 7.73224 11.9041V10.0873C7.73224 9.69453 7.40588 9.37536 6.99583 9.37536C6.59416 9.37536 6.2678 9.69453 6.2678 10.0873V11.9041C6.2678 12.3051 6.59416 12.6243 6.99583 12.6243Z" fill="#420516"/>
<path opacity="0.4" d="M11.5482 4.44373V5.65491C11.2553 5.57307 10.9457 5.53215 10.6277 5.53215H10.0838V4.44373C10.0838 2.78244 8.70301 1.43214 7.00427 1.43214C5.30552 1.43214 3.92477 2.77426 3.9164 4.42736V5.53215H3.38084C3.05448 5.53215 2.74485 5.57307 2.45197 5.66309V4.44373C2.46033 1.98863 4.49381 0 6.98753 0C9.51473 0 11.5482 1.98863 11.5482 4.44373Z" fill="#130F26"/>
</svg>
