<svg width="13" height="13" viewBox="0 0 13 13" fill="none" xmlns="http://www.w3.org/2000/svg">
<path opacity="0.4" d="M9.53333 0H3.46667C1.25378 0 0 1.25378 0 3.46667V9.53333C0 11.7404 1.248 13 3.46667 13H9.53333C11.7462 13 13 11.7404 13 9.53333V3.46667C13 1.25378 11.7462 0 9.53333 0Z" fill="white"/>
<path d="M8.65829 6.96042H6.98718V8.61704C6.98718 8.88377 6.76906 9.1 6.49999 9.1C6.23093 9.1 6.01281 8.88377 6.01281 8.61704V6.96042H4.3417C4.09072 6.93466 3.89999 6.72499 3.89999 6.47486C3.89999 6.22473 4.09072 6.01506 4.3417 5.9893H6.00757V4.33788C6.03356 4.08907 6.24505 3.9 6.49737 3.9C6.7497 3.9 6.96119 4.08907 6.98718 4.33788V5.9893H8.65829C8.90927 6.01506 9.09999 6.22473 9.09999 6.47486C9.09999 6.72499 8.90927 6.93466 8.65829 6.96042Z" fill="white"/>
</svg>
